<?xml version="1.0" standalone="no"?>
<!DOCTYPE svg PUBLIC "-//W3C//DTD SVG 20010904//EN"
 "http://www.w3.org/TR/2001/REC-SVG-20010904/DTD/svg10.dtd">
<svg version="1.0" xmlns="http://www.w3.org/2000/svg"
 width="16.000000pt" height="16.000000pt" viewBox="0 0 16.000000 16.000000"
 preserveAspectRatio="xMidYMid meet">
<metadata>
Created by potrace 1.11, written by Peter Selinger 2001-2013
</metadata>
<g transform="translate(0.000000,16.000000) scale(0.002286,-0.002286)"
fill="#000000" stroke="none">
<path d="M3457 6995 c-1 -1 -67 -5 -147 -9 -80 -3 -156 -8 -170 -10 -14 -2
-45 -7 -70 -10 -25 -3 -67 -8 -95 -12 -40 -5 -299 -57 -340 -68 -403 -110
-733 -256 -1055 -469 -117 -77 -284 -201 -344 -256 -130 -118 -165 -151 -210
-197 -91 -90 -173 -181 -232 -256 -32 -40 -61 -75 -64 -78 -20 -16 -206 -295
-251 -375 -85 -154 -127 -236 -168 -330 -87 -197 -134 -332 -196 -555 -10 -38
-66 -317 -70 -354 -3 -23 -10 -75 -15 -116 -22 -177 -29 -472 -16 -630 4 -36
9 -95 12 -132 3 -37 7 -76 9 -86 2 -11 6 -43 10 -73 3 -30 10 -70 15 -89 5
-19 11 -51 14 -70 7 -44 14 -77 20 -98 3 -9 8 -30 10 -47 27 -154 170 -539
279 -752 20 -40 37 -76 38 -80 0 -5 6 -15 13 -23 8 -8 24 -35 38 -60 113 -213
352 -524 564 -735 406 -405 933 -718 1469 -874 110 -31 218 -59 255 -66 19 -3
42 -8 50 -10 8 -2 31 -6 50 -9 19 -3 46 -8 60 -11 14 -3 43 -8 65 -10 22 -3
57 -8 78 -10 84 -11 116 -14 192 -20 94 -7 434 -8 485 -1 19 3 69 8 110 11 41
3 84 8 95 10 11 3 40 7 65 10 66 7 294 52 380 76 607 165 1142 473 1575 905
74 74 187 197 231 253 10 13 31 38 45 55 167 199 389 580 497 852 99 249 192
590 216 789 4 28 8 66 11 85 12 97 16 141 20 200 6 84 6 447 1 480 -2 14 -7
59 -10 100 -4 41 -8 86 -11 100 -2 14 -6 45 -9 70 -8 65 -15 104 -37 205 -11
50 -22 101 -25 115 -3 14 -17 66 -30 115 -120 427 -326 835 -603 1195 -36 47
-68 87 -71 90 -3 3 -35 39 -71 80 -202 228 -427 425 -679 595 -92 61 -266 167
-290 176 -8 3 -76 35 -150 71 -74 37 -175 82 -225 101 -191 74 -476 156 -630
181 -16 3 -57 9 -90 15 -33 5 -87 13 -120 17 -33 3 -69 8 -80 10 -10 2 -82 6
-160 10 -77 3 -161 7 -188 8 -26 1 -48 2 -50 1z m258 -279 c127 -8 273 -26
395 -50 67 -14 86 -18 140 -31 8 -2 18 -4 21 -4 3 -1 6 -7 6 -13 0 -7 19 -107
43 -223 23 -115 44 -219 46 -230 2 -11 8 -43 14 -71 6 -28 13 -64 16 -80 3
-16 18 -90 34 -164 16 -74 31 -148 33 -165 3 -16 26 -133 52 -260 26 -126 49
-239 51 -250 2 -11 8 -43 14 -71 6 -28 13 -63 16 -79 3 -15 11 -57 18 -92 14
-63 14 -64 -8 -57 -34 11 -371 120 -491 159 -60 20 -303 99 -540 176 -236 78
-468 153 -515 169 -122 40 -571 187 -1040 340 -536 174 -610 199 -625 208 -9
5 8 24 57 62 39 30 76 60 82 65 6 6 56 42 111 81 415 293 889 481 1390 554 44
6 91 13 104 15 13 2 83 7 155 11 72 3 132 7 133 8 4 3 170 -2 288 -8z m957
-212 c136 -51 396 -182 528 -264 282 -177 545 -403 750 -645 60 -71 94 -115
209 -270 45 -61 166 -265 215 -363 73 -146 136 -297 186 -451 l49 -146 -38
-35 c-21 -19 -78 -71 -127 -115 -48 -44 -113 -103 -143 -131 -44 -40 -389
-352 -645 -584 -21 -19 -51 -46 -66 -60 -15 -14 -64 -59 -110 -100 -46 -41
-113 -102 -148 -135 -35 -33 -68 -61 -72 -63 -9 -3 -22 50 -70 293 -73 366
-112 561 -116 580 -2 11 -7 36 -10 55 -3 19 -8 38 -10 41 -2 4 -6 26 -9 49 -3
24 -8 46 -10 50 -2 4 -7 22 -10 41 -5 29 -15 78 -51 264 -2 11 -6 31 -9 45 -9
42 -12 57 -59 290 -45 222 -133 656 -142 695 -2 11 -7 34 -10 50 -3 17 -28
143 -55 280 -28 138 -53 261 -55 275 -3 14 -7 32 -9 40 -2 8 -7 31 -10 50 -3
19 -17 88 -30 154 -25 118 -29 146 -21 146 2 0 46 -16 98 -36z m-3182 -894
c173 -56 374 -121 445 -145 72 -24 292 -96 490 -160 443 -144 410 -132 393
-148 -7 -6 -56 -50 -108 -97 -52 -47 -104 -94 -116 -105 -11 -11 -60 -56 -109
-100 -49 -44 -93 -85 -99 -90 -6 -6 -83 -75 -171 -155 -88 -79 -178 -161 -200
-182 -22 -20 -49 -45 -61 -55 -12 -10 -63 -56 -114 -103 -51 -47 -102 -93
-114 -103 -12 -10 -59 -53 -105 -95 -46 -42 -91 -84 -101 -92 -9 -8 -56 -50
-103 -94 -48 -43 -95 -86 -106 -95 -10 -9 -63 -56 -117 -106 -54 -49 -128
-117 -164 -149 -36 -33 -88 -80 -116 -105 -27 -25 -92 -84 -144 -131 -51 -47
-98 -89 -104 -95 -6 -5 -56 -50 -111 -100 -55 -49 -124 -112 -153 -140 -29
-27 -57 -51 -62 -53 -10 -4 -25 69 -39 188 -47 395 -24 795 65 1152 14 57 30
119 34 139 22 87 108 316 168 447 134 293 314 570 520 800 41 45 77 80 80 78
4 -2 149 -49 322 -106z m2465 -805 c248 -81 513 -167 590 -192 77 -25 141 -46
142 -47 1 -1 72 -347 79 -386 2 -14 7 -36 10 -50 3 -14 8 -36 11 -50 2 -14 31
-160 65 -325 33 -165 62 -311 64 -325 3 -14 7 -32 9 -40 2 -8 7 -31 10 -50 3
-19 10 -53 15 -75 5 -22 11 -53 14 -70 3 -16 17 -84 30 -150 l25 -120 -42 -40
c-23 -22 -81 -75 -128 -118 -48 -42 -97 -87 -111 -100 -13 -12 -63 -57 -110
-100 -47 -42 -97 -87 -110 -100 -135 -123 -197 -179 -218 -197 -14 -12 -43
-38 -65 -59 -22 -20 -89 -82 -150 -136 -60 -55 -132 -121 -160 -147 -38 -37
-56 -47 -75 -44 -21 4 -797 245 -1175 366 -66 21 -181 57 -255 79 -74 23 -142
45 -150 50 -13 7 -46 128 -65 236 -2 17 -7 39 -9 50 -21 103 -76 368 -80 387
-2 12 -30 147 -61 298 -31 151 -63 307 -70 345 -41 200 -55 268 -60 275 -4 7
95 103 192 188 13 11 67 60 120 109 54 49 152 139 218 199 67 60 159 144 206
186 46 42 95 85 107 96 32 28 194 176 262 239 107 100 75 97 288 26 103 -33
390 -127 637 -208z m2739 -870 c19 -145 30 -305 29 -440 0 -104 -12 -346 -18
-355 -1 -3 -6 -32 -9 -65 -4 -33 -9 -71 -11 -85 -3 -14 -8 -36 -10 -50 -3 -14
-8 -41 -11 -60 -3 -19 -17 -80 -30 -135 -14 -55 -27 -109 -29 -119 -6 -27 -64
-206 -75 -231 -5 -11 -21 -51 -35 -90 -122 -319 -356 -694 -596 -957 l-79 -86
-57 18 c-32 10 -159 51 -283 90 -124 39 -238 75 -255 80 -16 4 -73 22 -125 38
-160 51 -637 201 -775 244 -71 22 -136 43 -143 47 -9 5 1 20 35 51 26 24 91
83 143 130 52 48 124 113 160 145 36 33 70 64 76 70 16 15 173 157 195 176 16
13 145 132 238 218 14 13 54 49 89 80 35 31 76 67 91 81 63 58 230 210 276
251 27 24 61 55 76 69 24 23 157 143 199 180 9 8 59 54 111 101 52 48 116 106
143 130 27 24 59 53 70 64 12 11 44 40 71 64 28 25 95 86 150 136 198 181 369
334 371 332 2 -1 10 -56 18 -122z m-4969 -312 c3 -13 7 -35 10 -50 3 -16 10
-50 16 -78 6 -27 32 -158 59 -290 65 -317 181 -882 231 -1125 22 -107 43 -206
45 -220 3 -14 12 -59 20 -100 9 -41 31 -151 51 -245 19 -93 36 -177 38 -185 3
-13 69 -339 81 -395 9 -44 35 -171 38 -190 3 -11 14 -65 25 -120 12 -55 23
-110 26 -122 l5 -22 -67 25 c-91 34 -298 133 -397 191 -305 175 -608 422 -840
687 -70 80 -239 305 -273 365 -15 25 -33 52 -40 59 -7 7 -13 17 -13 22 0 5
-12 26 -26 47 -35 51 -162 308 -202 409 -33 83 -73 195 -97 272 l-13 42 36 34
c21 19 49 45 63 58 14 13 65 59 113 103 49 44 98 89 110 100 13 11 63 56 112
101 49 44 141 128 204 185 63 57 120 109 126 114 6 6 48 44 94 85 46 41 97 88
114 104 62 57 113 103 216 196 l104 94 13 -64 c8 -36 16 -75 18 -87z m777
-1594 c190 -59 272 -85 538 -169 107 -34 200 -63 205 -64 6 -1 33 -10 60 -18
166 -53 449 -142 500 -158 33 -10 175 -54 315 -98 319 -100 1287 -405 1397
-439 67 -21 81 -29 72 -40 -24 -29 -281 -216 -389 -283 -139 -86 -396 -214
-540 -268 -126 -48 -335 -113 -400 -126 -14 -3 -36 -8 -50 -11 -206 -49 -449
-77 -685 -78 -122 0 -374 11 -385 18 -3 2 -32 6 -65 9 -47 5 -227 37 -280 50
-5 1 -36 8 -67 15 -64 14 -65 14 -73 62 -3 19 -8 41 -10 49 -4 15 -91 432
-100 479 -2 14 -9 47 -15 75 -14 71 -19 91 -36 176 -8 41 -17 84 -19 95 -3 11
-31 151 -64 310 -33 160 -67 324 -75 365 -18 86 -20 114 -7 105 5 -3 83 -28
173 -56z"/>
</g>
</svg>
